<?xml version="1.0" standalone="yes"?>
<svg xmlns="http://www.w3.org/2000/svg" width="300" height="300">
<path style="fill:#010203; stroke:none;" d="M0 0L0 300L300 300L300 0L0 0z"/>
<path style="fill:#b6f7fc; stroke:none;" d="M165 37L165 38L182 38L165 37M157 38L157 39L164 39L157 38z"/>
<path style="fill:#47b8f6; stroke:none;" d="M164.667 38.3333L165.333 38.6667L164.667 38.3333z"/>
<path style="fill:#5a71b7; stroke:none;" d="M158 39L158 40L160 41L152 40L154 43L146 41L146 53L147 53C148.961 40.4305 171.103 41.3099 179.996 45.4159C195.134 52.4052 198.041 67.8056 202 82L203 82L203 75L204 75L200 144L201 144C201.443 141.659 202.603 133.767 205 139L204 139L204 137L203 137L200 152L199 152L199 149L198 149L196 156C204.058 153.879 205.215 142.941 206.6 136C209.958 119.184 207.18 101.063 207.179 84C207.179 76.4337 210.117 68.3992 205 62L208 63L203 51L204 51L207 55C199.09 33.722 175.697 38.8535 158 39z"/>
<path style="fill:#47b8f6; stroke:none;" d="M185 38L186 39L185 38z"/>
<path style="fill:#b6f7fc; stroke:none;" d="M186 38L186 39L189 39L186 38M151 39L151 40L156 40L151 39z"/>
<path style="fill:#47b8f6; stroke:none;" d="M153 40L153 41L160 41L153 40M167 39L167 40L184 45L187 40L167 39M190 39L191 40L190 39z"/>
<path style="fill:#b6f7fc; stroke:none;" d="M191 39L192 40L191 39M146 40L146 41L149 41L146 40z"/>
<path style="fill:#47b8f6; stroke:none;" d="M149 40L149 41L154 43L149 40z"/>
<path style="fill:#5a71b7; stroke:none;" d="M180 40L180 41L184 41L180 40z"/>
<path style="fill:#47b8f6; stroke:none;" d="M193 40L193 41L205 51L206 51C203.138 45.4872 198.978 41.7757 193 40z"/>
<path style="fill:#b6f7fc; stroke:none;" d="M195 40L196 41L195 40M197 41L198 42L197 41M145 42L145 145L146 145L146 115L148 116C152.323 94.0454 179.667 103.2 188.231 87.5748C189.667 84.9566 189.926 81.9285 189.985 79C190.031 76.7 190.079 74.2337 189.427 72.0046C183.146 50.5095 158.184 84.245 148.573 76.7569C140.762 70.6718 148.598 50.5741 145 42z"/>
<path style="fill:#47b8f6; stroke:none;" d="M192 42L200 55L195 52L199 65L200 65L197 56L204 61L201 56C202.439 48.1003 198.954 44.7102 192 42z"/>
<path style="fill:#b6f7fc; stroke:none;" d="M199 42L200 43L199 42z"/>
<path style="fill:#47b8f6; stroke:none;" d="M147 46L150 43L147 46z"/>
<path style="fill:#1f4bc0; stroke:none;" d="M200 74C203.914 55.0888 178.77 42.8281 164 43.0038C158.75 43.0663 144.806 44.7138 147.623 52.9823C151.451 64.2174 168.93 58.7542 177 58.1844C187.059 57.4742 195.941 65.4695 200 74z"/>
<path style="fill:#b6f7fc; stroke:none;" d="M200 43L201 44L200 43M201 44L202 45L201 44z"/>
<path style="fill:#47b8f6; stroke:none;" d="M192 51L192 47L197 48C193.325 45.6337 187.57 46.2547 192 51z"/>
<path style="fill:#b6f7fc; stroke:none;" d="M202 45L203 46L202 45z"/>
<path style="fill:#1f4bc0; stroke:none;" d="M200 46L201 47L200 46z"/>
<path style="fill:#b6f7fc; stroke:none;" d="M203 46L204 47L203 46z"/>
<path style="fill:#1f4bc0; stroke:none;" d="M201 47L202 48L201 47z"/>
<path style="fill:#b6f7fc; stroke:none;" d="M204 47L205 48L204 47z"/>
<path style="fill:#47b8f6; stroke:none;" d="M202.333 48.6667L202.667 49.3333L202.333 48.6667z"/>
<path style="fill:#b6f7fc; stroke:none;" d="M205 49L206 50L205 49z"/>
<path style="fill:#47b8f6; stroke:none;" d="M203 51L207 59L208 59L203 51z"/>
<path style="fill:#b6f7fc; stroke:none;" d="M206.333 51.6667L206.667 52.3333L206.333 51.6667z"/>
<path style="fill:#47b8f6; stroke:none;" d="M146 53C146 58.8325 143.118 74.6864 149.344 77.7569C159.276 82.6548 186.395 50.0458 189.811 75C193.76 103.848 150.821 90.5346 148 116L146 115L149 126L151 118L152 118L151 123L152 123C154.993 118.935 157.955 117.274 163 117L163 116L160 116L160 115L171 115L171 116L169 117L174 120L175 120L176 120L172 116L156 113L158 116L152 115L152 112L160 108L158 112L167 111L167 112L161 112L161 113L184 110L184 109L160 108L160 107C165.359 106.577 171.406 104.519 176 108L183 105L188 108L188 110L179 111L179 112L186 112L184 120L179 120L179 121C187.328 123.03 185.204 111.207 193 115L192 106L188 106L192 104L193 101L194 101L195 108L196 108C202.195 90.7453 205.911 62.7794 181 58.5571C167.903 56.3373 156.951 64.7142 146 53M206 53L207 54L206 53z"/>
<path style="fill:#5a71b7; stroke:none;" d="M147 54L147 56L149 56L147 54z"/>
<path style="fill:#b6f7fc; stroke:none;" d="M207.333 54.6667L207.667 55.3333L207.333 54.6667z"/>
<path style="fill:#1f4bc0; stroke:none;" d="M206 55L207 56L206 55z"/>
<path style="fill:#5a71b7; stroke:none;" d="M149 56L150 57L149 56M150 57L151 58L150 57M158.667 57.3333L159.333 57.6667L158.667 57.3333M191 57L192 58L191 57M152.667 58.3333L153.333 58.6667L152.667 58.3333M174 58L174 59L177 59L174 58M181.667 58.3333L182.333 58.6667L181.667 58.3333z"/>
<path style="fill:#b6f7fc; stroke:none;" d="M208 58L208 64L209 64L208 58z"/>
<path style="fill:#5a71b7; stroke:none;" d="M155.667 59.3333L156.333 59.6667L155.667 59.3333M168 59L168 60L171 60L168 59M184.667 59.3333L185.333 59.6667L184.667 59.3333M187 60L188 61L187 60z"/>
<path style="fill:#b6f7fc; stroke:none;" d="M157.667 61.3333L158.333 61.6667L157.667 61.3333M184.667 61.3333L185.333 61.6667L184.667 61.3333z"/>
<path style="fill:#5a71b7; stroke:none;" d="M189 61L190 62L189 61z"/>
<path style="fill:#b6f7fc; stroke:none;" d="M187 62L188 63L187 62z"/>
<path style="fill:#47b8f6; stroke:none;" d="M205 62L208 64L208 63L205 62z"/>
<path style="fill:#b6f7fc; stroke:none;" d="M151 63L152 64L151 63M189 63L190 64L189 63z"/>
<path style="fill:#5a71b7; stroke:none;" d="M193 64L194 65L193 64z"/>
<path style="fill:#47b8f6; stroke:none;" d="M208 64L208 127L209 127L209 84L208 64z"/>
<path style="fill:#5a71b7; stroke:none;" d="M194 65L195 66L194 65M195 66L196 67L195 66M196 67L197 68L196 67z"/>
<path style="fill:#b6f7fc; stroke:none;" d="M195 69L196 70L195 69z"/>
<path style="fill:#5a71b7; stroke:none;" d="M198 70L199 71L198 70z"/>
<path style="fill:#47b8f6; stroke:none;" d="M203 75L203 85L205 85L203 75z"/>
<path style="fill:#b6f7fc; stroke:none;" d="M152 76L153 77L152 76z"/>
<path style="fill:#47b8f6; stroke:none;" d="M206 76L206 80L207 80L206 76z"/>
<path style="fill:#b6f7fc; stroke:none;" d="M209 77L209 87L210 87L209 77z"/>
<path style="fill:#1f4bc0; stroke:none;" d="M201 80C200.999 92.1624 199.765 119.434 184 122.473C173.489 124.499 164.69 112.879 154.185 121.38C141.102 131.967 146.845 160.312 146.996 175C147.063 181.5 145.472 187.58 147 194L142 202L143 205L140 205L139 206L140 208L134 209L136 212L134 212L134 213L136 213L136 214L126 214L126 213L133 210L102 212L104 217L99 219L102 216L102 215L98 216L104 211L104 210L97 213L98 211L97 211L95 215L97 217L94 216L92 222L92 237L93 237C94.2797 228.335 98.6115 221.719 106 217L104 214L104 213L107 216C113.946 214.711 120.388 214.638 127 217.468C148.634 226.727 170.76 256.159 194.826 232.84C198.381 229.396 201.106 225.896 202 221L204 222C204.97 218.337 205.857 214.685 206.742 211C209.361 200.084 203.444 193.864 192 196.927C176.489 201.079 157.158 215.767 147 194L148 194C155.977 210.159 173.821 198.683 184 192.966C195.019 186.777 206.6 187.911 208 172L202 181L201 181L207.566 166.91L206 152L207 152L207 157L208 157L208 131L207 131C205.934 144.397 200.36 155.416 191 165C202.156 145.533 203 125.02 203 103C203 96.1734 204.969 85.8094 201 80z"/>
<path style="fill:#5a71b7; stroke:none;" d="M200 88L200 91L201 91L200 88z"/>
<path style="fill:#47b8f6; stroke:none;" d="M205 88L206 126L207 126C206.772 114.957 209.287 98.2176 205 88z"/>
<path style="fill:#5a71b7; stroke:none;" d="M199 93C196.668 97.1684 195.332 100.363 199 104L199 93z"/>
<path style="fill:#b6f7fc; stroke:none;" d="M184 96L185 97L184 96z"/>
<path style="fill:#5a71b7; stroke:none;" d="M192 104L188 106L192 106L193 115C186.3 110.499 186.219 120.703 180 122L180 123C189.386 122.773 195.44 116.028 197 107L194 101L192 104M197 104L197 107L198 107L197 104M183 105L176 108C172.543 104.044 164.677 106.409 160 107L160 108L184 109L184 110L161 113L161 112L167 112L167 111L158 112L160 108L152 112L152 115L158 116L156 113L172 116C174.709 116.348 175.413 117.737 174 120L174 121L180 122L184 120L186 112L179 112L179 111L188 110L188 108L183 105z"/>
<path style="fill:#47b8f6; stroke:none;" d="M165 107L165 108L168 108L165 107M173 112L173 113L176 113L173 112z"/>
<path style="fill:#5a71b7; stroke:none;" d="M150 115L150 118L151 118L150 115M160 115L160 116L163 116L163 117L155 120L175 119L175 118L169 117L171 116L160 115z"/>
<path style="fill:#47b8f6; stroke:none;" d="M165 116L165 117L168 117L165 116M188 116L189 117L188 116z"/>
<path style="fill:#b6f7fc; stroke:none;" d="M209 116L209 126L210 126L209 116z"/>
<path style="fill:#5a71b7; stroke:none;" d="M152.667 117.333L153.333 117.667L152.667 117.333M151 118L152 125L151 118M148.667 119.333L149.333 119.667L148.667 119.333M152 123L155 120L152 123M148 121L148 124L149 124L148 121M146 124L148 129C143.993 129.668 146 149.711 146 154L147 154L150 125L146 124z"/>
<path style="fill:#47b8f6; stroke:none;" d="M203 126L203 133L206 133L203 126M146 127L148 129L148 127L146 127z"/>
<path style="fill:#b6f7fc; stroke:none;" d="M208 127L210 144L208 127z"/>
<path style="fill:#47b8f6; stroke:none;" d="M202 136L199 152L200 152L203 137L204 137L204 139C205.118 136.86 204.251 136.473 202 136z"/>
<path style="fill:#5a71b7; stroke:none;" d="M208 144C208 154.697 210.914 170.422 205.468 179.996C200.549 188.644 193.143 188.397 185 191.966C172.3 197.532 159.577 209.95 148 194L147 194C153.953 218.754 181.035 198.506 195 196.507C199.754 195.827 203.889 197.922 208 200L206 196C212.507 187.055 209 168.644 209 158C209 153.464 209.769 148.215 208 144M199 145L199 148L200 148L199 145z"/>
<path style="fill:#b6f7fc; stroke:none;" d="M145 147L145 150L146 150L145 147z"/>
<path style="fill:#010203; stroke:none;" d="M207.333 147.667L207.667 148.333L207.333 147.667M205 149L206 150L205 149M204 151C201.022 155.276 198.073 158.597 199 164L200 164L204 151M207 151L208 152L207 151z"/>
<path style="fill:#47b8f6; stroke:none;" d="M198 152L198 155L199 155L198 152z"/>
<path style="fill:#010203; stroke:none;" d="M206 152L207 160L208 160L206 152M150 157L158 157L158 156L151 154L150 157z"/>
<path style="fill:#b6f7fc; stroke:none;" d="M145 155L145 162L146 162L145 155z"/>
<path style="fill:#47b8f6; stroke:none;" d="M197 155L195 160L196 160L197 155z"/>
<path style="fill:#010203; stroke:none;" d="M147 156L147 160L148 160L147 156z"/>
<path style="fill:#5a71b7; stroke:none;" d="M195.333 157.667L195.667 158.333L195.333 157.667M197 157L198 158L197 157z"/>
<path style="fill:#010203; stroke:none;" d="M150 159L150 160L155 159L150 159M160 159L161 160L160 159z"/>
<path style="fill:#5a71b7; stroke:none;" d="M196 159L197 160L196 159z"/>
<path style="fill:#010203; stroke:none;" d="M203.667 159.333L204.333 159.667L203.667 159.333M155 160L155 161L159 161L155 160z"/>
<path style="fill:#5a71b7; stroke:none;" d="M193 160L191 165L196 160L193 160z"/>
<path style="fill:#010203; stroke:none;" d="M161 164L160 164L160 162L159 162L160 168L161 168L164 165L162 161L161 164M195 163L190 170L192 167L195 168L195 165L196 165L197 165L198 168L199 168L197 163L195 163M164 166C162.713 173.377 167.063 178.9 174 181L174 180C169.638 177.145 164.582 172.703 166 167L164 166z"/>
<path style="fill:#5a71b7; stroke:none;" d="M146 168L146 184L147 184L146 168z"/>
<path style="fill:#010203; stroke:none;" d="M167 168L170 171L167 168M200 168L201 169L200 168M207 168L201 181L202 181L207 168z"/>
<path style="fill:#b6f7fc; stroke:none;" d="M209.333 168.667L209.667 169.333L209.333 168.667M109 186C108.629 183.395 107.888 181.384 106.746 178.998C97.6968 160.093 89.8203 184.713 109 186z"/>
<path style="fill:#010203; stroke:none;" d="M182 173L192 175C190.409 170.231 185.11 168.603 182 173z"/>
<path style="fill:#47b8f6; stroke:none;" d="M96 176L108 185C105.765 180.999 101.027 166.955 96 176z"/>
<path style="fill:#010203; stroke:none;" d="M171 174L174 172L171 174M175 175L175 178L176 178L175 175M184 175L184 176L189 176L184 175M200 176L201 177L200 176M205 176L200 185C203.348 182.955 206.085 180.085 205 176z"/>
<path style="fill:#b6f7fc; stroke:none;" d="M209 180L209 190L210 190L209 180M145 184L145 192L146 192L145 184z"/>
<path style="fill:#010203; stroke:none;" d="M175 184L175 185L181 185L175 184M188 184L188 185L193 186L188 184M196.667 184.333L197.333 184.667L196.667 184.333M184 185L182 189L198 187L198 186L184 189L186 185L184 185z"/>
<path style="fill:#b6f7fc; stroke:none;" d="M102 188L102 189L111 191L102 188M99 189L98 195L99 195L99 189z"/>
<path style="fill:#47b8f6; stroke:none;" d="M100 189L101 190L100 189z"/>
<path style="fill:#5a71b7; stroke:none;" d="M101 189L101 190L106 190L101 189z"/>
<path style="fill:#47b8f6; stroke:none;" d="M106 189L107 190L106 189z"/>
<path style="fill:#5a71b7; stroke:none;" d="M99 190L98 194L99 194L99 190z"/>
<path style="fill:#1f4bc0; stroke:none;" d="M99 194C101.298 194.913 103.453 195.879 105.577 197.155C122.229 207.162 104.226 178.255 99 194z"/>
<path style="fill:#5a71b7; stroke:none;" d="M108 190L109 191L108 190z"/>
<path style="fill:#47b8f6; stroke:none;" d="M109 190L110 191L109 190M208.333 190.667L208.667 191.333L208.333 190.667z"/>
<path style="fill:#5a71b7; stroke:none;" d="M102 191L101 193L102 191M106 191L107 192L106 191M110 191L111 192L110 191z"/>
<path style="fill:#47b8f6; stroke:none;" d="M111 191L112 192L111 191z"/>
<path style="fill:#5a71b7; stroke:none;" d="M112 192L114 195L112 192z"/>
<path style="fill:#b6f7fc; stroke:none;" d="M113 192L114 193L113 192z"/>
<path style="fill:#5a71b7; stroke:none;" d="M145 192L145 194L147 194L147 192L145 192z"/>
<path style="fill:#010203; stroke:none;" d="M150 192L151 193L150 192z"/>
<path style="fill:#b6f7fc; stroke:none;" d="M208 192L208 211L209 211L208 192z"/>
<path style="fill:#5a71b7; stroke:none;" d="M103 193L104 194L103 193M108 193L109 194L108 193z"/>
<path style="fill:#47b8f6; stroke:none;" d="M113 193L114 194L113 193M99 194L100 195L99 194z"/>
<path style="fill:#5a71b7; stroke:none;" d="M100 194L101 195L100 194z"/>
<path style="fill:#b6f7fc; stroke:none;" d="M114.333 194.667L114.667 195.333L114.333 194.667M100 195L101 196L100 195z"/>
<path style="fill:#47b8f6; stroke:none;" d="M101 195L102 196L101 195z"/>
<path style="fill:#5a71b7; stroke:none;" d="M102 195L103 196L102 195M111 195L112 196L111 195z"/>
<path style="fill:#b6f7fc; stroke:none;" d="M144 195L145 196L144 195z"/>
<path style="fill:#47b8f6; stroke:none;" d="M206 195L208 197L208 195L206 195z"/>
<path style="fill:#b6f7fc; stroke:none;" d="M102 196L102 197L106 199L102 196z"/>
<path style="fill:#5a71b7; stroke:none;" d="M104 196L106 198L106 196L104 196z"/>
<path style="fill:#47b8f6; stroke:none;" d="M114 196L114 199L115 199L114 196z"/>
<path style="fill:#5a71b7; stroke:none;" d="M144 196L145 197L144 196z"/>
<path style="fill:#010203; stroke:none;" d="M146 197L148 200L146 197z"/>
<path style="fill:#47b8f6; stroke:none;" d="M106 198L107 199L106 198z"/>
<path style="fill:#5a71b7; stroke:none;" d="M107 198L109 200L107 198z"/>
<path style="fill:#b6f7fc; stroke:none;" d="M143 198L144 199L143 198z"/>
<path style="fill:#010203; stroke:none;" d="M144 198L143 203L144 198z"/>
<path style="fill:#b6f7fc; stroke:none;" d="M107 199L108 200L107 199z"/>
<path style="fill:#5a71b7; stroke:none;" d="M113 199L110 200L110 201L114 200L113 199z"/>
<path style="fill:#b6f7fc; stroke:none;" d="M114 199L115 200L114 199z"/>
<path style="fill:#47b8f6; stroke:none;" d="M143 199L144 200L143 199z"/>
<path style="fill:#b6f7fc; stroke:none;" d="M109 200L110 201L109 200z"/>
<path style="fill:#47b8f6; stroke:none;" d="M113 200L114 201L113 200z"/>
<path style="fill:#b6f7fc; stroke:none;" d="M142 200L143 201L142 200z"/>
<path style="fill:#1f4bc0; stroke:none;" d="M143 200L144 201L143 200z"/>
<path style="fill:#b6f7fc; stroke:none;" d="M110 201L110 202L113 202L110 201z"/>
<path style="fill:#5a71b7; stroke:none;" d="M142 201L143 202L142 201z"/>
<path style="fill:#b6f7fc; stroke:none;" d="M141 202L142 203L141 202z"/>
<path style="fill:#010203; stroke:none;" d="M147 202L151 205L147 202z"/>
<path style="fill:#5a71b7; stroke:none;" d="M141 203L140 205L141 203z"/>
<path style="fill:#010203; stroke:none;" d="M142 203L141 206L142 203z"/>
<path style="fill:#47b8f6; stroke:none;" d="M139 205L140 206L139 205z"/>
<path style="fill:#010203; stroke:none;" d="M143 205L142 208L143 205M152 205L152 207L154 207L152 205z"/>
<path style="fill:#5a71b7; stroke:none;" d="M138 206L137 208L138 206z"/>
<path style="fill:#010203; stroke:none;" d="M140 206L141 207L140 206M146 206L146 208L148 208L146 206M138.667 207.333L139.333 207.667L138.667 207.333M155 207L155 208L158 208L155 207z"/>
<path style="fill:#b6f7fc; stroke:none;" d="M134.667 208.333L135.333 208.667L134.667 208.333z"/>
<path style="fill:#010203; stroke:none;" d="M163 210L163 211L173 209L163 210z"/>
<path style="fill:#5a71b7; stroke:none;" d="M207.333 208.667L207.667 209.333L207.333 208.667z"/>
<path style="fill:#b6f7fc; stroke:none;" d="M97 209L98 210L97 209z"/>
<path style="fill:#5a71b7; stroke:none;" d="M97 211L100 210L97 211z"/>
<path style="fill:#b6f7fc; stroke:none;" d="M100.667 209.333L101.333 209.667L100.667 209.333M132 209L133 210L132 209z"/>
<path style="fill:#47b8f6; stroke:none;" d="M133 209L134 210L133 209z"/>
<path style="fill:#010203; stroke:none;" d="M135 209L136 210L135 209M160.667 209.333L161.333 209.667L160.667 209.333M97 213L100 210L97 213z"/>
<path style="fill:#5a71b7; stroke:none;" d="M104 210L105 211L104 210z"/>
<path style="fill:#47b8f6; stroke:none;" d="M105 210L106 211L105 210z"/>
<path style="fill:#b6f7fc; stroke:none;" d="M106 210L107 211L106 210M129 210L130 211L129 210z"/>
<path style="fill:#5a71b7; stroke:none;" d="M130 210L131 211L130 210z"/>
<path style="fill:#010203; stroke:none;" d="M133 210L126 213L126 214L136 214L136 213L136 211L133 210z"/>
<path style="fill:#47b8f6; stroke:none;" d="M207 210L207 213L208 213L207 210M96 211L97 212L96 211z"/>
<path style="fill:#010203; stroke:none;" d="M98 216L102 215L102 216L99 219L104 217L102 212L105 212C101.426 210.846 99.8212 213.085 98 216z"/>
<path style="fill:#5a71b7; stroke:none;" d="M111.667 211.333L112.333 211.667L111.667 211.333z"/>
<path style="fill:#47b8f6; stroke:none;" d="M113.667 211.333L114.333 211.667L113.667 211.333z"/>
<path style="fill:#b6f7fc; stroke:none;" d="M115 211L115 212L120 212L115 211M122.667 211.333L123.333 211.667L122.667 211.333z"/>
<path style="fill:#47b8f6; stroke:none;" d="M124 211L125 212L124 211z"/>
<path style="fill:#5a71b7; stroke:none;" d="M125 211L125 212L128 212L125 211M206 211L206 216L207 216L206 211z"/>
<path style="fill:#b6f7fc; stroke:none;" d="M95 212L96 213L95 212z"/>
<path style="fill:#010203; stroke:none;" d="M107 212L107 213L110 213L107 212M112 212L112 213L119 213L112 212z"/>
<path style="fill:#5a71b7; stroke:none;" d="M95 213L96 214L95 213z"/>
<path style="fill:#010203; stroke:none;" d="M104 213L104 214L105 216L107 213L104 213M160.667 213.333L161.333 213.667L160.667 213.333z"/>
<path style="fill:#b6f7fc; stroke:none;" d="M207 213L204 228L203 228L203 226L202 226C202.197 229.098 202.269 230.631 199 231L200 234C185.339 241.824 178.152 255.367 159 252.231C146.689 250.216 136.936 243.357 126 237.865C121.807 235.759 115.656 233.431 111.518 237.009C100.847 246.236 122.544 257.298 129 258.869C153.863 264.917 180.911 260.597 197.652 239.576C202.52 233.462 210.149 221.088 207 213z"/>
<path style="fill:#47b8f6; stroke:none;" d="M94 214L95 215L94 214z"/>
<path style="fill:#010203; stroke:none;" d="M96 214L97 217L96 214z"/>
<path style="fill:#5a71b7; stroke:none;" d="M94 215L95 216L94 215M98 224L99 225L102 220L104 222C110.306 218.416 116.167 220.707 123 221L120 216L125 220L137 224L137 225L130 225L139 234L144 232L141 235L141 236C144.196 237.644 145.792 238.021 148 235L149 235L147 239C150.518 244.756 158.491 247.666 165 248L165 247L160 246L160 245L171 248L174 246C174 243.099 175.197 243.737 176 246L200 229C196.196 228.909 193.069 233.864 189.999 236.022C184.941 239.577 178.254 241.867 172 241.367C153.708 239.903 142.432 222.568 126 216.7C115.868 213.081 104.046 214.397 98 224z"/>
<path style="fill:#47b8f6; stroke:none;" d="M116 216L112 217L112 218L117 217L116 216M120 216L123 221L110 219.167L102 220L100 225L97 224C97.5078 227.047 97.5868 228.647 95 228L92 240C95.3965 243.959 96.7224 248.621 101.094 252.115C115.523 263.645 134.7 262 152 262L152 261C140.45 261 126.72 260.499 117.015 253.363C111.923 249.619 105.196 238.4 115.019 235.693C123.221 233.432 135.113 243.487 142 247.111C156.199 254.584 173.711 255.167 187 245.51C191.55 242.203 199.249 237.13 199 231L202 232L202 226L203 226L203 228L204 228L207 216L206 216C199.966 230.416 189.413 238.922 176 246L174 243L174 246L171 248L160 245L160 246L165 247L165 248C158.295 247.327 151.567 243.947 147 239C149.851 238.386 149.854 237.697 149 235L148 235L141 236L141 235L144 232L139 234L130 225L137 225L137 224L125 220L120 216M93 217L94 218L93 217z"/>
<path style="fill:#010203; stroke:none;" d="M94 217L93 222L94 222L94 217z"/>
<path style="fill:#47b8f6; stroke:none;" d="M107.667 217.333L108.333 217.667L107.667 217.333z"/>
<path style="fill:#5a71b7; stroke:none;" d="M205 217L206 218L205 217z"/>
<path style="fill:#1f4bc0; stroke:none;" d="M93 218L94 219L93 218z"/>
<path style="fill:#47b8f6; stroke:none;" d="M103 220L106 219L103 220z"/>
<path style="fill:#b6f7fc; stroke:none;" d="M92 219L93 220L92 219z"/>
<path style="fill:#010203; stroke:none;" d="M96 219L94 226L95 226L99 219L96 219z"/>
<path style="fill:#5a71b7; stroke:none;" d="M204 219L205 220L204 219z"/>
<path style="fill:#47b8f6; stroke:none;" d="M92 220L93 221L92 220z"/>
<path style="fill:#5a71b7; stroke:none;" d="M92 221L93 222L92 221M124 221L127 225L128 225L130 222L124 221M202 221L202 224L203 224L202 221z"/>
<path style="fill:#47b8f6; stroke:none;" d="M99 223L100 224L99 223z"/>
<path style="fill:#b6f7fc; stroke:none;" d="M91.3333 224.667L91.6667 225.333L91.3333 224.667z"/>
<path style="fill:#010203; stroke:none;" d="M92 224L92 232L93 232L92 224z"/>
<path style="fill:#b6f7fc; stroke:none;" d="M102 224L103 225L102 224z"/>
<path style="fill:#5a71b7; stroke:none;" d="M201 224L202 225L201 224M96 225L96 229L98 225L96 225z"/>
<path style="fill:#47b8f6; stroke:none;" d="M131 225L131 226L136 231L141 227L131 225M91 226L92 227L91 226z"/>
<path style="fill:#5a71b7; stroke:none;" d="M200 226L201 227L200 226M91 227L91 234L92 234L91 227z"/>
<path style="fill:#b6f7fc; stroke:none;" d="M100 227L101 228L100 227M128 228L129 229L128 228z"/>
<path style="fill:#47b8f6; stroke:none;" d="M142 229L142 230L146 232L142 229z"/>
<path style="fill:#5a71b7; stroke:none;" d="M94 230L95 231L94 230z"/>
<path style="fill:#b6f7fc; stroke:none;" d="M132 231L133 232L132 231z"/>
<path style="fill:#47b8f6; stroke:none;" d="M140 231L141 232L140 231z"/>
<path style="fill:#5a71b7; stroke:none;" d="M94 232L95 233L94 232M93.3333 233.667L93.6667 234.333L93.3333 233.667z"/>
<path style="fill:#47b8f6; stroke:none;" d="M144 233L144 236L146 235L146 234L144 233z"/>
<path style="fill:#b6f7fc; stroke:none;" d="M91 234L91 238L92 238L91 234z"/>
<path style="fill:#5a71b7; stroke:none;" d="M93 236L92 238L94 238L93 236z"/>
<path style="fill:#b6f7fc; stroke:none;" d="M138 236L139 237L138 236z"/>
<path style="fill:#47b8f6; stroke:none;" d="M152 237L152 238L156 239L156 240L152 243L162 243L152 237z"/>
<path style="fill:#5a71b7; stroke:none;" d="M93 240L94 241L93 240z"/>
<path style="fill:#47b8f6; stroke:none;" d="M183 241L184 242L183 241z"/>
<path style="fill:#b6f7fc; stroke:none;" d="M93.3333 242.667L93.6667 243.333L93.3333 242.667z"/>
<path style="fill:#47b8f6; stroke:none;" d="M156 243L157 244L156 243M168 243L169 246L170 246L171 243L168 243z"/>
<path style="fill:#b6f7fc; stroke:none;" d="M94 245L95 248L96 248L96 245L94 245M96 248L98 250L98 248L96 248M98 250L99 251L98 250M167 250L168 251L167 250M99 251L106 256L106 255L99 251M106 256L106 257L116 260L116 259L106 256M116 257L117 258L116 257M120.667 258.333L121.333 258.667L120.667 258.333M116 260L116 261L120 261L116 260M121 261L121 262L126 262L121 261M128 262L128 263L137 263L128 262M141 262L141 263L148 263L141 262z"/>
</svg>
